#!OML:ASF H:\Pregnant\Project 1\Capture day 1\Session 1\femalepreg.ASF
:FULLY-SPECIFIED
:DEGREES
1014
root 5.77963 15.6533 26.9514 547.936 -83.0995 -534.988
lowerback -23.2533 1.29333 0.196361
upperback -3.36862 1.38085 -0.168645
thorax 9.27749 0.545864 0.104962
lowerneck -12.5137 15.1674 17.7443
upperneck 22.9901 21.455 -15.5427
head 13.6084 9.43035 -4.99913
rclavicle -6.54126e-015 2.48481e-015
rhumerus -35.9326 20.1846 -94.6885
rradius 27.3994
rwrist -8.38416
rhand -18.2797 -20.8812
rfingers 7.12502
rthumb 8.0004 -50.7098
lclavicle -6.54126e-015 2.48481e-015
lhumerus -40.76 -31.0011 98.4602
lradius 33.4318
lwrist 43.5665
lhand -32.6931 2.98305
lfingers 7.12502
lthumb -5.91796 -327.12
rfemur -19.8488 22.8856 11.2783
rtibia 26.0653
rfoot -14.4282 -24.0337
rtoes -13.4988
lfemur -8.24478 -12.428 -15.0579
ltibia -1.43125e-014
lfoot -1.40082 16.8801
ltoes -14.1238
1015
root 5.77706 15.6524 26.9585 548.069 -83.0936 -535.148
lowerback -23.2557 1.30467 0.197892
upperback -3.35853 1.39794 -0.187563
thorax 9.29058 0.554588 0.0886751
lowerneck -12.4116 15.2826 17.8883
upperneck 22.9553 21.6437 -15.6694
head 13.6514 9.51634 -5.0281
rclavicle -1.43933e-014 -5.26779e-015
rhumerus -35.9407 20.2045 -94.7072
rradius 27.4067
rwrist -8.4269
rhand -18.2587 -20.8768
rfingers 7.12502
rthumb 8.02066 -50.7046
lclavicle -1.43933e-014 -5.26779e-015
lhumerus -40.7436 -31.0528 98.4423
lradius 33.4346
lwrist 43.5843
lhand -32.6822 2.9868
lfingers 7.12502
lthumb -5.90735 -327.116
rfemur -19.8142 22.8867 11.2421
rtibia 26.0703
rfoot -14.4367 -24.0425
rtoes -13.5391
lfemur -8.21362 -12.4353 -15.1161
ltibia -3.10104e-014
lfoot -1.39875 16.8789
ltoes -14.1588
1016
root 5.77463 15.6516 26.9657 548.199 -83.0873 -535.304
lowerback -23.2556 1.31383 0.195742
upperback -3.34927 1.4128 -0.203635
thorax 9.30128 0.562077 0.0768933
lowerneck -12.3182 15.3965 18.027
upperneck 22.9306 21.8293 -15.7863
head 13.6982 9.60072 -5.05262
rclavicle -1.33061e-014 1.68967e-015
rhumerus -35.9504 20.2313 -94.7277
rradius 27.412
rwrist -8.47216
rhand -18.2425 -20.8702
rfingers 7.12502
rthumb 8.03625 -50.6974
lclavicle -1.33061e-014 1.68967e-015
lhumerus -40.726 -31.0963 98.4243
lradius 33.4372
lwrist 43.5991
lhand -32.6828 2.996
lfingers 7.12502
lthumb -5.90795 -327.106
rfemur -19.7825 22.8893 11.2052
rtibia 26.0787
rfoot -14.4521 -24.0501
rtoes -13.562
lfemur -8.18352 -12.4424 -15.1746
ltibia -1.74931e-014
lfoot -1.38917 16.8769
ltoes -14.2389
1017
root 5.77231 15.6506 26.9729 548.354 -83.0784 -535.488
lowerback -23.252 1.32202 0.18624
upperback -3.33964 1.4281 -0.217832
thorax 9.31024 0.569532 0.0714683
lowerneck -12.2347 15.5062 18.1591
upperneck 22.9168 22.0079 -15.8935
head 13.7483 9.68162 -5.07352
rclavicle -1.49089e-016 1.19271e-015
rhumerus -35.9634 20.2715 -94.7529
rradius 27.4185
rwrist -8.53046
rhand -18.2389 -20.8723
rfingers 7.12502
rthumb 8.03981 -50.6994
lclavicle -1.49089e-016 1.19271e-015
lhumerus -40.7049 -31.1286 98.407
lradius 33.4358
lwrist 43.6026
lhand -32.6873 3.00764
lfingers 7.12502
lthumb -5.91227 -327.095
rfemur -19.7512 22.9438 11.1597
rtibia 26.0919
rfoot -14.4692 -24.1033
rtoes -13.5658
lfemur -8.14902 -12.4478 -15.238
ltibia -1.35174e-014
lfoot -1.38239 16.8735
ltoes -14.3118
1018
root 5.77006 15.6495 26.9803 548.538 -83.0678 -535.701
lowerback -23.2471 1.32872 0.171023
upperback -3.33026 1.44272 -0.23053
thorax 9.31808 0.576449 0.0707374
lowerneck -12.1548 15.6105 18.2914
upperneck 22.9097 22.1788 -15.9996
head 13.8008 9.75892 -5.09559
rclavicle -1.34801e-015 6.95746e-016
rhumerus -35.9795 20.3252 -94.7813
rradius 27.4263
rwrist -8.60093
rhand -18.2419 -20.8789
rfingers 7.12502
rthumb 8.03686 -50.7061
lclavicle -1.34801e-015 6.95746e-016
lhumerus -40.6831 -31.1536 98.3914
lradius 33.4308
lwrist 43.5962
lhand -32.6942 3.01578
lfingers 7.12502
lthumb -5.91898 -327.087
rfemur -19.7218 23.0444 11.1045
rtibia 26.1094
rfoot -14.4932 -24.1938
rtoes -13.5279
lfemur -8.11343 -12.4523 -15.3059
ltibia -7.15625e-015
lfoot -1.3772 16.8683
ltoes -14.3719
1019
root 5.768 15.6484 26.988 548.796 -83.055 -535.987
lowerback -23.247 1.32803 0.142288
upperback -3.31696 1.45031 -0.234418
thorax 9.33221 0.579456 0.085421
lowerneck -12.0795 15.7114 18.4005
upperneck 22.9002 22.3479 -16.1019
head 13.8496 9.83364 -5.11288
rclavicle 9.44227e-016 -1.32192e-014
rhumerus -35.9869 20.404 -94.7983
rradius 27.431
rwrist -8.67408
rhand -18.2478 -20.8919
rfingers 7.12502
rthumb 8.03119 -50.7193
lclavicle 9.44227e-016 -1.32192e-014
lhumerus -40.644 -31.1485 98.3761
lradius 33.417
lwrist 43.5755
lhand -32.6909 3.02059
lfingers 7.12502
lthumb -5.91576 -327.082
rfemur -19.6971 23.2065 11.03
rtibia 26.1311
rfoot -14.5266 -24.3357
rtoes -13.4414
lfemur -8.07947 -12.4561 -15.3839
ltibia 1.43125e-014
lfoot -1.3745 16.8628
ltoes -14.4085
1020
root 5.76601 15.6474 26.9955 549.054 -83.0429 -536.273
lowerback -23.2484 1.32794 0.114548
upperback -3.30243 1.45847 -0.238124
thorax 9.34852 0.582778 0.0999582
lowerneck -12.0116 15.8068 18.496
upperneck 22.8963 22.5082 -16.1922
head 13.897 9.90405 -5.12517
rclavicle -1.17407e-014 -4.67144e-015
rhumerus -35.9852 20.4698 -94.8075
rradius 27.4269
rwrist -8.73224
rhand -18.25 -20.9066
rfingers 7.12502
rthumb 8.02908 -50.7341
lclavicle -1.17407e-014 -4.67144e-015
lhumerus -40.604 -31.1445 98.3614
lradius 33.4017
lwrist 43.5494
lhand -32.6758 3.01968
lfingers 7.12502
lthumb -5.90125 -327.082
rfemur -19.6735 23.3802 10.954
rtibia 26.1543
rfoot -14.5634 -24.487
rtoes -13.3398
lfemur -8.04675 -12.4605 -15.4606
ltibia -9.54166e-015
lfoot -1.37827 16.8575
ltoes -14.4004
1021
root 5.76414 15.6464 27.0031 549.318 -83.031 -536.566
lowerback -23.2502 1.32953 0.088623
upperback -3.28585 1.46875 -0.243851
thorax 9.36746 0.587237 0.111919
lowerneck -11.9494 15.8956 18.5787
upperneck 22.8972 22.657 -16.2678
head 13.9413 9.96956 -5.1324
rclavicle 3.17124e-014 7.55382e-015
rhumerus -35.9744 20.5164 -94.809
rradius 27.4152
rwrist -8.77328
rhand -18.2518 -20.9202
rfingers 7.12502
rthumb 8.02733 -50.7478
lclavicle 3.17124e-014 7.55382e-015
lhumerus -40.5669 -31.1512 98.3495
lradius 33.3906
lwrist 43.5305
lhand -32.6641 3.01121
lfingers 7.12502
lthumb -5.88995 -327.091
rfemur -19.6486 23.5315 10.8801
rtibia 26.177
rfoot -14.5974 -24.6186
rtoes -13.2572
lfemur -8.01329 -12.4654 -15.5386
ltibia 3.33958e-014
lfoot -1.38184 16.8537
ltoes -14.3909
1022
root 5.76237 15.6455 27.0107 549.557 -83.0221 -536.835
lowerback -23.2526 1.33583 0.0700914
upperback -3.26816 1.48394 -0.254392
thorax 9.38827 0.594387 0.115881
lowerneck -11.8965 15.9786 18.6522
upperneck 22.9054 22.794 -16.3271
head 13.9842 10.0302 -5.13426
rclavicle -2.76808e-014 -1.59028e-015
rhumerus -35.9523 20.5291 -94.8023
rradius 27.3929
rwrist -8.78822
rhand -18.2524 -20.9292
rfingers 7.12502
rthumb 8.02673 -50.7568
lclavicle -2.76808e-014 -1.59028e-015
lhumerus -40.5385 -31.1846 98.3428
lradius 33.3891
lwrist 43.5279
lhand -32.67 3.0032
lfingers 7.12502
lthumb -5.89562 -327.099
rfemur -19.6232 23.5896 10.8201
rtibia 26.1976
rfoot -14.6208 -24.6725
rtoes -13.2445
lfemur -7.98197 -12.4727 -15.6128
ltibia -1.43125e-014
lfoot -1.38144 16.8509
ltoes -14.3927
1023
root 5.76073 15.6446 27.0181 549.743 -83.0162 -537.05
lowerback -23.2535 1.34936 0.0625868
upperback -3.25009 1.50665 -0.272001
thorax 9.40924 0.605632 0.10804
lowerneck -11.8548 16.0529 18.7278
upperneck 22.9247 22.9139 -16.3742
head 14.0289 10.0841 -5.1354
rclavicle 1.44119e-015 -1.39149e-015
rhumerus -35.9257 20.5112 -94.7961
rradius 27.3672
rwrist -8.78883
rhand -18.2601 -20.9425
rfingers 7.12502
rthumb 8.0193 -50.7704
lclavicle 1.44119e-015 -1.39149e-015
lhumerus -40.5223 -31.2539 98.3414
lradius 33.3985
lwrist 43.5445
lhand -32.6897 2.99685
lfingers 7.12502
lthumb -5.91459 -327.106
rfemur -19.5962 23.5847 10.776
rtibia 26.2169
rfoot -14.6353 -24.6744
rtoes -13.28
lfemur -7.94977 -12.4817 -15.679
ltibia 6.36111e-015
lfoot -1.38512 16.8481
ltoes -14.3726
1024
root 5.7593 15.6437 27.0255 549.923 -83.0137 -537.261
lowerback -23.2502 1.36729 0.061311
upperback -3.23318 1.53455 -0.298831
thorax 9.42712 0.619734 0.0879814
lowerneck -11.8185 16.1217 18.8125
upperneck 22.9494 23.022 -16.4156
head 14.075 10.1337 -5.13821
rclavicle -1.36043e-015 2.38542e-015
rhumerus -35.8991 20.4774 -94.7973
rradius 27.3416
rwrist -8.78507
rhand -18.2678 -20.958
rfingers 7.12502
rthumb 8.01184 -50.7861
lclavicle -1.36043e-015 2.38542e-015
lhumerus -40.5205 -31.3563 98.341
lradius 33.4205
lwrist 43.5794
lhand -32.7204 2.99623
lfingers 7.12502
lthumb -5.94432 -327.107
rfemur -19.569 23.5492 10.736
rtibia 26.2361
rfoot -14.6486 -24.6516
rtoes -13.3295
lfemur -7.91855 -12.494 -15.7441
ltibia 1.66979e-014
lfoot -1.38586 16.8444
ltoes -14.3673
